<svg width="50" height="50" viewBox="0 0 50 50" fill="none" xmlns="http://www.w3.org/2000/svg">
<g clip-path="url(#clip0_3248_222)">
<path fill-rule="evenodd" clip-rule="evenodd" d="M45.8333 22.7723C45.915 23.5043 45.9588 24.2473 45.9588 25.0001C45.9588 27.4895 45.4972 29.8745 44.6556 32.0798H29.992V22.7723H25.9508V36.7335H26.4881H29.992H42.1297C38.506 41.7197 32.6353 45.0545 25.9508 45.3446V50C39.3151 49.499 50 38.497 50 25.0001C50 24.2488 49.9652 23.5064 49.9005 22.7723H45.8333ZM20.008 44.7828C13.2279 43.1722 7.73999 38.3546 5.34424 32.0798H1.01695C3.60999 40.8863 10.9131 47.6725 20.008 49.5182C20.8285 49.684 21.6635 49.8122 22.5112 49.8953L22.5244 49.8965L22.9571 49.9354L23.0208 49.9409L23.0298 49.9414C23.1763 49.9534 23.3227 49.9627 23.4696 49.9715L23.5338 49.9753L23.538 49.9758L23.5979 49.9791L24.0492 50V45.3445V22.7722H23.9583H20.008H4.1657C5.12607 14.199 11.5648 7.22163 20.008 5.21658V18.1184H24.0492V4.65536V0C23.8552 0.007092 23.6621 0.0164166 23.4696 0.0284992L23.4249 0.0312572L23.4049 0.0323079C22.2497 0.104541 21.1157 0.25518 20.008 0.480153C8.59485 2.79608 0 12.8953 0 25C0 25.8185 0.0399156 26.6278 0.11701 27.426H2.52974H4.18943H20.008L20.008 44.7828Z" fill="#FE461C"/>
<path d="M25.7225 4.12705C25.7225 3.80712 25.7781 3.56875 25.8892 3.4122C26.0003 3.25552 26.1919 3.17725 26.4639 3.17725C26.9552 3.17725 27.201 3.44504 27.201 3.98048V4.52118H26.5692V3.87436C26.5692 3.75314 26.5341 3.6926 26.4639 3.6926C26.4376 3.6926 26.4127 3.70849 26.3894 3.74053C26.366 3.77258 26.3542 3.8171 26.3542 3.87436V6.24899C26.3542 6.37021 26.3864 6.43089 26.4507 6.43089C26.5297 6.43089 26.5692 6.37021 26.5692 6.24899V5.61242H26.42V5.05163H27.201V6.88556H26.8939L26.8456 6.66321C26.6905 6.87203 26.5151 6.97644 26.3191 6.97644C26.2782 6.97644 26.2197 6.96475 26.1437 6.94111C25.8629 6.84012 25.7225 6.5353 25.7225 6.02664L25.7225 4.12705ZM27.5563 6.88556V3.26314H28.2933C28.5215 3.26314 28.7006 3.31199 28.8308 3.40957C28.9609 3.50729 29.0261 3.67736 29.0261 3.91993V4.18772C29.0261 4.41335 28.9961 4.58343 28.9361 4.69795C28.8761 4.81247 28.7438 4.88155 28.5391 4.90506V4.9203C28.7145 4.94039 28.8396 4.99516 28.9142 5.08446C28.9888 5.17364 29.0261 5.32441 29.0261 5.53664V6.28432C29.0261 6.55723 29.045 6.75751 29.0831 6.88556H28.4645C28.4264 6.75751 28.4074 6.56564 28.4074 6.30967V5.5113C28.4074 5.44405 28.3949 5.37668 28.3701 5.30931C28.3452 5.24193 28.3153 5.20818 28.2802 5.20818H28.1881V6.88557L27.5563 6.88556ZM28.1881 4.71817H28.2802C28.3066 4.71817 28.3343 4.69375 28.3636 4.64489C28.3928 4.59604 28.4074 4.54639 28.4074 4.49583V3.93005C28.4074 3.86937 28.3964 3.81973 28.3745 3.78098C28.3526 3.74224 28.3212 3.7228 28.2802 3.7228H28.1881V4.71817ZM29.3682 6.88556L29.8684 3.26314H30.6713L31.0485 6.88556H30.3948L30.3378 5.92053H30.0263L29.9342 6.88556H29.3682ZM30.0658 5.38508H30.3027L30.2238 4.2786L30.2193 3.78348H30.1931L30.1667 4.2786L30.0658 5.38508ZM31.4082 6.88556V3.26314H32.1453C32.6337 3.26314 32.878 3.48207 32.878 3.91993V4.70294C32.878 4.99608 32.8144 5.19807 32.6871 5.30931C32.56 5.42041 32.3647 5.47597 32.1015 5.47597H32.04V6.88557L31.4082 6.88556ZM32.04 4.97585H32.141C32.1761 4.97585 32.2046 4.95641 32.2265 4.91767C32.2484 4.87892 32.2593 4.82928 32.2593 4.7686V3.93004C32.2593 3.79188 32.217 3.7228 32.1322 3.7228H32.04V4.97585ZM33.2245 6.88556V3.26314H33.8563V4.60194H34.0537V3.26314H34.6855V6.88556H34.0537V5.14251H33.8563V6.88556H33.2245ZM35.0408 6.88556V3.26314H35.6726V6.88556H35.0408ZM36.0192 4.12705C36.0192 3.82721 36.0828 3.59397 36.21 3.4273C36.3372 3.26051 36.5106 3.17725 36.7299 3.17725C36.9755 3.17725 37.1628 3.25132 37.2914 3.39946C37.4201 3.54774 37.4845 3.80712 37.4845 4.17761V4.52117H36.8527V3.87436C36.8527 3.75314 36.8176 3.6926 36.7475 3.6926C36.7211 3.6926 36.6962 3.70849 36.6729 3.74053C36.6495 3.77258 36.6377 3.8171 36.6377 3.87436V6.24899C36.6377 6.30625 36.6495 6.3509 36.6729 6.38282C36.6962 6.41486 36.7211 6.43089 36.7475 6.43089C36.8176 6.43089 36.8527 6.37021 36.8527 6.24899V5.5113H37.4845V6.03676C37.4845 6.3534 37.4311 6.58665 37.3244 6.7365C37.2175 6.88635 37.0253 6.96134 36.7475 6.96134C36.5573 6.96134 36.4096 6.9268 36.3043 6.85772C36.199 6.78877 36.1252 6.68686 36.0828 6.55211C36.0404 6.41736 36.0192 6.24558 36.0192 6.03676V4.12705ZM25.74 12.6654V9.04297H26.4771C26.6672 9.04297 26.8149 9.07488 26.9202 9.13897C27.0255 9.20293 27.1001 9.29802 27.144 9.42436C27.1878 9.5507 27.2098 9.72156 27.2098 9.93721V11.7711C27.2098 12.0911 27.1505 12.3201 27.0321 12.4583C26.9136 12.5963 26.714 12.6654 26.4333 12.6654L25.74 12.6654ZM26.3718 9.53297V12.1653H26.4727C26.5516 12.1653 26.5911 12.0945 26.5911 11.953V9.74009C26.5911 9.68624 26.578 9.6383 26.5516 9.59614C26.5253 9.55412 26.4961 9.53297 26.4639 9.53297H26.3718ZM27.5563 12.6654V9.04297H28.7277V9.54308H28.1881V10.3818H28.7277V10.9072H28.1881V12.1197H28.7277V12.6654L27.5563 12.6654ZM29.0523 9.69977C29.0523 9.45719 29.124 9.27451 29.2673 9.15158C29.4106 9.02866 29.5861 8.96719 29.7937 8.96719C29.8991 8.96719 29.978 8.97389 30.0307 8.98742C30.1857 9.02104 30.307 9.10273 30.3948 9.23235C30.4825 9.36211 30.5264 9.52115 30.5264 9.70988V10.301H29.8946V9.65419C29.8946 9.59693 29.8837 9.55241 29.8618 9.52037C29.8398 9.48832 29.8157 9.47243 29.7894 9.47243C29.763 9.47243 29.739 9.48504 29.7169 9.51025C29.695 9.53547 29.6841 9.56331 29.6841 9.59365V9.90688C29.6841 10.0584 29.7104 10.1695 29.763 10.2403L30.3685 10.9981C30.4737 11.1363 30.5264 11.34 30.5264 11.6095V11.9278C30.5264 12.2107 30.465 12.4178 30.3421 12.5492C30.2047 12.6873 30.0204 12.7563 29.7894 12.7563C29.649 12.7563 29.5217 12.7261 29.4077 12.6654C29.1737 12.5442 29.0567 12.3134 29.0567 11.9733V11.2911H29.6841V12.0288C29.6841 12.0861 29.6957 12.1307 29.7191 12.1626C29.7426 12.1947 29.7675 12.2107 29.7937 12.2107C29.861 12.2107 29.8946 12.1517 29.8946 12.0338V11.5892C29.8712 11.495 29.8361 11.4142 29.7894 11.3468L29.2147 10.6091C29.1065 10.4643 29.0523 10.2623 29.0523 10.0029L29.0523 9.69977ZM30.8992 12.6654V9.04297H31.5311V12.6654H30.8992ZM31.8645 9.90688C31.8645 9.58695 31.9201 9.34858 32.0311 9.19203C32.1423 9.03535 32.3339 8.95708 32.6059 8.95708C33.0972 8.95708 33.343 9.22487 33.343 9.76031V10.301H32.7112V9.65419C32.7112 9.53297 32.6761 9.47243 32.6059 9.47243C32.5796 9.47243 32.5547 9.48832 32.5313 9.52037C32.508 9.55241 32.4962 9.59693 32.4962 9.65419V12.0288C32.4962 12.15 32.5284 12.2107 32.5927 12.2107C32.6717 12.2107 32.7112 12.15 32.7112 12.0288V11.3923H32.562V10.8315H33.343V12.6654H33.0359L32.9876 12.443C32.8325 12.6519 32.6571 12.7563 32.4611 12.7563C32.4201 12.7563 32.3616 12.7446 32.2857 12.7209C32.0049 12.62 31.8645 12.3151 31.8645 11.8065L31.8645 9.90688ZM33.6982 12.6654V9.04297H34.5669L34.7907 10.5788L34.8697 11.3165H34.8828L34.8697 10.5333V9.04297H35.3567V12.6654H34.6152L34.2994 10.7001L34.194 9.8462H34.1721L34.1984 10.5182V12.6654H33.6982ZM35.7119 12.6654V9.04297H36.8834V9.54308H36.3437V10.3818H36.8834V10.9072H36.3437V12.1197H36.8834V12.6654L35.7119 12.6654ZM37.2386 12.6654V9.04297H37.9757C38.2039 9.04297 38.383 9.09182 38.5132 9.1894C38.6433 9.28712 38.7084 9.45719 38.7084 9.69977V9.96755C38.7084 10.1932 38.6784 10.3633 38.6185 10.4778C38.5585 10.5923 38.4262 10.6614 38.2215 10.6849V10.7001C38.3969 10.7202 38.522 10.775 38.5966 10.8643C38.6712 10.9535 38.7084 11.1042 38.7084 11.3165V12.0642C38.7084 12.3371 38.7274 12.5373 38.7655 12.6654H38.1469C38.1088 12.5373 38.0898 12.3455 38.0898 12.0895V11.2911C38.0898 11.2239 38.0773 11.1565 38.0525 11.0891C38.0276 11.0218 37.9977 10.988 37.9626 10.988H37.8704V12.6654L37.2386 12.6654ZM37.8704 10.498H37.9626C37.9889 10.498 38.0166 10.4736 38.046 10.4247C38.0752 10.3759 38.0898 10.3262 38.0898 10.2757V9.70988C38.0898 9.6492 38.0788 9.59956 38.0569 9.56081C38.035 9.52207 38.0035 9.50263 37.9626 9.50263H37.8704V10.498ZM40.3097 11.8166V11.1346C40.3097 10.9931 40.3331 10.8761 40.3799 10.7834C40.4268 10.6908 40.4999 10.6057 40.5993 10.5283C40.4677 10.2959 40.4019 10.0752 40.4019 9.86642C40.4019 9.77213 40.4077 9.6643 40.4195 9.54308C40.4369 9.34437 40.505 9.19702 40.6234 9.10102C40.7419 9.00501 40.8874 8.95707 41.0599 8.95707C41.1155 8.95707 41.1769 8.96548 41.2442 8.98229C41.4548 9.01263 41.5872 9.0934 41.6412 9.22486C41.6954 9.3562 41.7224 9.56331 41.7224 9.8462V9.88166C41.7224 10.0836 41.6866 10.2319 41.6149 10.3262C41.5432 10.4205 41.4168 10.5333 41.2354 10.6647C41.2939 10.7792 41.3407 10.8744 41.3758 10.9502C41.411 11.026 41.4504 11.1094 41.4942 11.2002C41.4854 11.1025 41.4811 11.0049 41.4811 10.9072V10.6698H41.9812V11.756C41.9812 11.8503 41.9608 11.9479 41.9198 12.049C41.9754 12.0962 42.0309 12.1197 42.0866 12.1197C42.0924 12.1164 42.0967 12.1138 42.0997 12.1122C42.1026 12.1105 42.1085 12.1096 42.1172 12.1096V12.6654H41.9154C41.7926 12.6654 41.7019 12.6217 41.6434 12.5341C41.5352 12.6452 41.4168 12.7075 41.288 12.7209C41.2295 12.7345 41.1623 12.7412 41.0863 12.7412C40.9839 12.7412 40.9005 12.7311 40.8362 12.7108C40.4853 12.6333 40.3097 12.3354 40.3097 11.8166ZM41.1126 9.47243H41.0643C40.9999 9.47243 40.9678 9.52115 40.9678 9.61886C40.9678 9.68282 40.9671 9.73588 40.9656 9.77804C40.9641 9.8202 40.962 9.86813 40.959 9.92198C40.959 10.0567 40.9839 10.1747 41.0336 10.2757C41.0891 10.2319 41.1272 10.1915 41.1476 10.1544C41.1682 10.1174 41.1784 10.0651 41.1784 9.99776V9.94221C41.1784 9.91187 41.1791 9.88324 41.1806 9.85631C41.1821 9.82939 41.1828 9.78566 41.1828 9.72498C41.1828 9.58012 41.1594 9.49594 41.1126 9.47243ZM40.9064 11.8368C40.9064 11.9446 40.9283 12.0296 40.9722 12.092C41.016 12.1542 41.0717 12.1854 41.1388 12.1854C41.2267 12.1854 41.3012 12.1483 41.3626 12.0743L40.9064 11.1346V11.8368Z" fill="white"/>
<path d="M26.0121 18.4451L25.6962 14.8227H26.3323L26.3981 16.207C26.4215 16.5774 26.4332 16.9193 26.4332 17.2325H26.4507C26.4595 17.1416 26.4697 17.0179 26.4815 16.8613C26.4931 16.7046 26.5049 16.5572 26.5165 16.4192L26.6877 14.8227H27.3545L27.4773 16.5354C27.4861 16.6499 27.4949 16.7645 27.5037 16.879C27.5124 16.9935 27.5212 17.1113 27.53 17.2325H27.5519C27.5549 16.9531 27.5724 16.6044 27.6046 16.1867L27.688 14.8227H28.2275L27.8854 18.4451H27.1571L26.9991 16.5051C26.9816 16.3468 26.9728 16.1464 26.9728 15.9038H26.9509C26.9158 16.281 26.8858 16.6112 26.8609 16.8941C26.836 17.177 26.8163 17.4077 26.8017 17.5862C26.7871 17.7648 26.7608 18.051 26.7228 18.4451L26.0121 18.4451ZM28.5522 18.4451V14.8227H29.7237V15.3228H29.184V16.1615H29.7237V16.687H29.184V17.8994H29.7237V18.4451L28.5522 18.4451ZM30.0789 18.4451V14.8227H30.816C31.3044 14.8227 31.5487 15.05 31.5487 15.5047V15.8735C31.5487 16.0251 31.5055 16.1615 31.4193 16.2827C31.3329 16.4041 31.2138 16.4782 31.0617 16.5051V16.5202C31.3863 16.5673 31.5487 16.7645 31.5487 17.1113V17.662C31.5487 17.9584 31.4872 18.163 31.3644 18.2758C31.2416 18.3887 31.0442 18.4451 30.7722 18.4451L30.0789 18.4451ZM30.7107 16.7677V17.945H30.8029C30.8877 17.945 30.93 17.8742 30.93 17.7328V16.975C30.93 16.921 30.9169 16.8731 30.8906 16.8309C30.8642 16.7889 30.835 16.7677 30.8029 16.7677L30.7107 16.7677ZM30.93 15.4896C30.93 15.3515 30.8833 15.2824 30.7896 15.2824H30.7107V16.2777H30.8029C30.8877 16.2777 30.93 16.2037 30.93 16.0554V15.4896ZM33.1323 18.4451V14.8227H33.8694C34.0595 14.8227 34.2072 14.8546 34.3126 14.9187C34.4178 14.9827 34.4924 15.0778 34.5363 15.2041C34.5801 15.3304 34.6021 15.5013 34.6021 15.717V17.5509C34.6021 17.8708 34.5428 18.0999 34.4245 18.238C34.306 18.376 34.1064 18.4451 33.8256 18.4451H33.1323ZM33.7641 15.3127V17.945H33.8651C33.944 17.945 33.9834 17.8742 33.9834 17.7328V15.5198C33.9834 15.466 33.9703 15.418 33.944 15.3759C33.9176 15.3339 33.8884 15.3127 33.8563 15.3127H33.7641ZM34.9486 18.4451V14.8227H36.1201V15.3228H35.5804V16.1615H36.1201V16.687H35.5804V17.8994H36.1201V18.4451L34.9486 18.4451ZM36.7649 18.4451L36.4095 14.8227H37.0544L37.1817 17.0962C37.1875 17.231 37.1927 17.3413 37.1971 17.427C37.2014 17.5129 37.2051 17.6064 37.2081 17.7076H37.2256C37.2344 17.6232 37.2445 17.4944 37.2563 17.321C37.268 17.1476 37.2782 17.0221 37.287 16.9446L37.4625 14.8227H38.024L37.6029 18.4451H36.7649ZM38.3925 18.4451V14.8227H39.564V15.3228H39.0243V16.1615H39.564V16.687H39.0243V17.8994H39.564V18.4451L38.3925 18.4451ZM39.9192 18.4451V14.8227H40.551V17.8994H41.0907V18.4451H39.9192ZM41.4285 17.5862V15.6866C41.4285 15.3667 41.484 15.1283 41.5951 14.9718C41.7063 14.8151 41.8979 14.7368 42.1699 14.7368C42.4507 14.7368 42.6438 14.8134 42.749 14.9666C42.8543 15.1199 42.907 15.3599 42.907 15.6866V17.5862C42.907 17.9029 42.8536 18.1378 42.7469 18.2911C42.64 18.4443 42.4477 18.5209 42.1699 18.5209C41.8949 18.5209 41.7027 18.4443 41.5929 18.2911C41.4832 18.1378 41.4285 17.9029 41.4285 17.5862ZM42.0602 15.4339V17.8086C42.0602 17.9298 42.0924 17.9905 42.1567 17.9905C42.2357 17.9905 42.2752 17.9298 42.2752 17.8086V15.4339C42.2752 15.2993 42.24 15.2319 42.1699 15.2319C42.1406 15.2319 42.115 15.2488 42.0931 15.2824C42.0711 15.3161 42.0602 15.3667 42.0602 15.4339ZM43.2622 18.4451V14.8227H43.9993C44.4877 14.8227 44.732 15.0416 44.732 15.4795V16.2625C44.732 16.5557 44.6684 16.7576 44.5411 16.8689C44.414 16.98 44.2187 17.0355 43.9555 17.0355H43.894V18.4451L43.2622 18.4451ZM43.894 16.5354H43.995C44.0301 16.5354 44.0586 16.516 44.0805 16.4772C44.1024 16.4385 44.1133 16.3889 44.1133 16.3282V15.4896C44.1133 15.3515 44.071 15.2824 43.9862 15.2824H43.894V16.5354ZM45.0785 18.4451V14.8227H46.25V15.3228H45.7103V16.1615H46.25V16.687H45.7103V17.8994H46.25V18.4451L45.0785 18.4451ZM46.6052 18.4451V14.8227H47.3423C47.5705 14.8227 47.7495 14.8716 47.8798 14.9691C48.0099 15.0669 48.075 15.2369 48.075 15.4795V15.7473C48.075 15.9729 48.045 16.143 47.985 16.2575C47.925 16.372 47.7928 16.4411 47.588 16.4646V16.4799C47.7634 16.5 47.8886 16.5547 47.9631 16.644C48.0377 16.7332 48.075 16.884 48.075 17.0962V17.8439C48.075 18.1168 48.0939 18.3171 48.132 18.4451H47.5135C47.4754 18.3171 47.4563 18.1252 47.4563 17.8692V17.0709C47.4563 17.0036 47.4439 16.9363 47.419 16.8689C47.3942 16.8015 47.3643 16.7678 47.3292 16.7678H47.237V18.4451L46.6052 18.4451ZM47.237 16.2777H47.3292C47.3555 16.2777 47.3832 16.2533 47.4125 16.2045C47.4417 16.1556 47.4563 16.106 47.4563 16.0554V15.4896C47.4563 15.4289 47.4454 15.3793 47.4235 15.3406C47.4016 15.3018 47.3701 15.2824 47.3292 15.2824H47.237V16.2777Z" fill="white"/>
</g>
<defs>
<clipPath id="clip0_3248_222">
<rect width="50" height="50" fill="white"/>
</clipPath>
</defs>
</svg>
